<svg width="86" height="29" viewBox="0 0 86 29" fill="none" xmlns="http://www.w3.org/2000/svg">
<g clip-path="url(#clip0_1_214)">
<path d="M81.7 0.362549H4.3C2.12308 0.362549 0.358337 2.14781 0.358337 4.35005V24.65C0.358337 26.8523 2.12308 28.6375 4.3 28.6375H81.7C83.8769 28.6375 85.6417 26.8523 85.6417 24.65V4.35005C85.6417 2.14781 83.8769 0.362549 81.7 0.362549Z" fill="black"/>
<path d="M81.7 0.362549H4.3C2.12308 0.362549 0.358337 2.14781 0.358337 4.35005V24.65C0.358337 26.8523 2.12308 28.6375 4.3 28.6375H81.7C83.8769 28.6375 85.6417 26.8523 85.6417 24.65V4.35005C85.6417 2.14781 83.8769 0.362549 81.7 0.362549Z" stroke="#A6A6A6"/>
<path d="M17.7049 15.0532C17.7136 14.3863 17.8929 13.7323 18.2263 13.1522C18.5597 12.5722 19.0362 12.0848 19.6114 11.7355C19.2459 11.22 18.7638 10.7958 18.2033 10.4965C17.6428 10.1971 17.0193 10.0311 16.3824 10.0114C15.0238 9.8706 13.7068 10.8143 13.0145 10.8143C12.3088 10.8143 11.2429 10.0254 10.0951 10.0487C9.35264 10.0724 8.6291 10.2857 7.99492 10.6677C7.36074 11.0496 6.83754 11.5873 6.47633 12.2284C4.91169 14.9039 6.07877 18.8361 7.5776 20.9988C8.32745 22.0578 9.20386 23.2408 10.3507 23.1989C11.4728 23.1528 11.8919 22.492 13.2465 22.492C14.5885 22.492 14.9818 23.1989 16.1518 23.1722C17.3559 23.1528 18.1146 22.1085 18.8382 21.0394C19.377 20.2848 19.7916 19.4508 20.0667 18.5683C19.3671 18.2761 18.7701 17.7869 18.3501 17.1618C17.9301 16.5368 17.7057 15.8033 17.7049 15.0532Z" fill="white"/>
<path d="M15.4958 8.5892C16.1523 7.81076 16.4758 6.81023 16.3975 5.80005C15.3944 5.9041 14.4678 6.37758 13.8024 7.12615C13.477 7.49184 13.2279 7.91727 13.0691 8.37815C12.9104 8.83903 12.8451 9.3263 12.8771 9.81205C13.3788 9.81713 13.8752 9.70976 14.3287 9.49791C14.7824 9.28614 15.1814 8.9754 15.4958 8.5892Z" fill="white"/>
<path d="M26.3669 6.16359H27.8502C29.1321 6.16359 29.7556 6.93462 29.7556 8.33326C29.7556 9.73193 29.1258 10.5125 27.8502 10.5125H26.3669V6.16359ZM27.0818 6.77213V9.90397H27.7715C28.6219 9.90397 29.0218 9.38465 29.0218 8.34283C29.0218 7.29462 28.6187 6.77213 27.7715 6.77213H27.0818ZM32.0169 7.08755C32.8862 7.08755 33.494 7.65785 33.494 8.60412V9.04057C33.494 10.0187 32.8862 10.5699 32.0169 10.5699C31.1351 10.5699 30.5336 10.025 30.5336 9.04376V8.60731C30.5336 7.68656 31.1445 7.08755 32.0169 7.08755ZM32.0201 7.65785C31.5225 7.65785 31.2391 8.07842 31.2391 8.64233V9.01831C31.2391 9.58222 31.5036 9.9996 32.0201 9.9996C32.5303 9.9996 32.7917 9.58541 32.7917 9.01831V8.64233C32.7917 8.07842 32.5177 7.65785 32.0201 7.65785ZM38.6275 7.1449L37.752 10.5125H37.0403L36.3442 8.02745H36.3253L35.6419 10.5125H34.927L34.0136 7.1449H34.7664L35.3018 9.71286H35.3332L36.0041 7.1449H36.6623L37.352 9.71286H37.3836L37.9284 7.1449H38.6275ZM39.3204 10.5125V7.1449H40.007V7.75021H40.0417C40.1267 7.48581 40.3692 7.09392 41.0431 7.09392C41.714 7.09392 42.1644 7.46986 42.1644 8.2377V10.5125H41.4652V8.44476C41.4652 7.93183 41.2007 7.69606 40.8069 7.69606C40.2904 7.69606 40.0196 8.09749 40.0196 8.64233V10.5125H39.3204ZM43.2225 10.5125V5.9342H43.9217V10.5125H43.2225ZM46.3216 7.08755C47.1909 7.08755 47.7987 7.65785 47.7987 8.60412V9.04057C47.7987 10.0187 47.1909 10.5699 46.3216 10.5699C45.4397 10.5699 44.8382 10.025 44.8382 9.04376V8.60731C44.8382 7.68656 45.4492 7.08755 46.3216 7.08755ZM46.3248 7.65785C45.8271 7.65785 45.5437 8.07842 45.5437 8.64233V9.01831C45.5437 9.58222 45.8083 9.9996 46.3248 9.9996C46.835 9.9996 47.0963 9.58541 47.0963 9.01831V8.64233C47.0963 8.07842 46.8223 7.65785 46.3248 7.65785ZM49.6096 10.5635C48.964 10.5635 48.5198 10.1621 48.5198 9.53444C48.5198 8.93863 48.9293 8.5372 49.6978 8.5372H50.5386V8.22175C50.5386 7.83627 50.2962 7.65466 49.9119 7.65466C49.534 7.65466 49.3639 7.81394 49.3104 8.03695H48.6458C48.6868 7.47305 49.1056 7.09392 49.934 7.09392C50.6458 7.09392 51.2346 7.39344 51.2346 8.23132V10.5125H50.5702V10.076H50.5386C50.3906 10.3341 50.1009 10.5635 49.6096 10.5635ZM49.8269 10.0155C50.2237 10.0155 50.5386 9.7415 50.5386 9.37516V9.01193H49.808C49.4017 9.01193 49.2222 9.21899 49.2222 9.49935C49.2222 9.84981 49.5119 10.0155 49.8269 10.0155ZM53.3889 7.10029C53.8581 7.10029 54.2172 7.31057 54.3463 7.65147H54.381V5.9342H55.0801V10.5125H54.3998V9.97408H54.3652C54.2644 10.315 53.8645 10.5571 53.3794 10.5571C52.6141 10.5571 52.1165 10.006 52.1165 9.11706V8.54039C52.1165 7.65147 52.6235 7.10029 53.3889 7.10029ZM53.5842 7.68018C53.118 7.68018 52.8283 8.03064 52.8283 8.64233V9.01193C52.8283 9.6268 53.1212 9.97727 53.5999 9.97727C54.0723 9.97727 54.381 9.62999 54.381 9.05652V8.54677C54.381 8.02745 54.044 7.68018 53.5842 7.68018ZM58.9192 7.08755C59.7885 7.08755 60.3963 7.65785 60.3963 8.60412V9.04057C60.3963 10.0187 59.7885 10.5699 58.9192 10.5699C58.0374 10.5699 57.4359 10.025 57.4359 9.04376V8.60731C57.4359 7.68656 58.0468 7.08755 58.9192 7.08755ZM58.9224 7.65785C58.4247 7.65785 58.1413 8.07842 58.1413 8.64233V9.01831C58.1413 9.58222 58.4059 9.9996 58.9224 9.9996C59.4326 9.9996 59.694 9.58541 59.694 9.01831V8.64233C59.694 8.07842 59.42 7.65785 58.9224 7.65785ZM61.2971 10.5125V7.1449H61.9836V7.75021H62.0183C62.1033 7.48581 62.3458 7.09392 63.0198 7.09392C63.6906 7.09392 64.1409 7.46986 64.1409 8.2377V10.5125H63.4418V8.44476C63.4418 7.93183 63.1772 7.69606 62.7836 7.69606C62.2671 7.69606 61.9962 8.09749 61.9962 8.64233V10.5125H61.2971ZM66.8463 7.1672V6.32609H67.5297V7.1672H68.2761V7.72158H67.5297V9.50892C67.5297 9.87533 67.6652 9.97727 68.04 9.97727C68.1344 9.97727 68.2604 9.97089 68.314 9.96451V10.5062C68.2573 10.5157 68.0242 10.5349 67.8668 10.5349C67.0574 10.5349 66.8368 10.2417 66.8368 9.56627V7.72158H66.3298V7.1672H66.8463ZM69.158 10.5125V5.9342H69.854V7.75021H69.8886C69.9611 7.51133 70.2319 7.09392 70.8996 7.09392C71.5484 7.09392 72.0114 7.47305 72.0114 8.24089V10.5125H71.3154V8.44795C71.3154 7.93502 71.0351 7.69606 70.6382 7.69606C70.1374 7.69606 69.854 8.09437 69.854 8.64233V10.5125H69.158ZM74.3577 10.5699C73.4504 10.5699 72.8871 10.006 72.8871 9.05652V8.60093C72.8871 7.64509 73.5042 7.08755 74.3169 7.08755C75.1511 7.08755 75.7402 7.6738 75.7402 8.60093V8.99598H73.5794V9.16164C73.5794 9.64594 73.8632 10.0028 74.3542 10.0028C74.7197 10.0028 74.9719 9.82756 75.0192 9.61723H75.7022C75.6614 10.006 75.255 10.5699 74.3577 10.5699ZM73.5794 8.53401H75.0565V8.48942C75.0565 7.98279 74.7641 7.64509 74.3198 7.64509C73.8761 7.64509 73.5794 7.98279 73.5794 8.48942V8.53401Z" fill="white"/>
<path d="M27.381 22.1125H25.926L28.8864 13.4146H30.4864L33.4405 22.1125H31.9288L31.1666 19.7039H28.1495L27.381 22.1125ZM29.6927 14.9184H29.636L28.4707 18.5951H30.8453L29.6927 14.9184ZM37.4562 22.2081C36.5932 22.2081 35.9381 21.7939 35.5854 21.1758H35.535V24.3491H34.1366V15.3773H35.4972V16.3649H35.5476C35.913 15.7214 36.5932 15.288 37.4876 15.288C38.9804 15.288 40.045 16.4287 40.045 18.4422V19.0412C40.045 21.042 38.9931 22.2081 37.4562 22.2081ZM37.1349 21.042C38.023 21.042 38.6277 20.322 38.6277 18.9647V18.4932C38.6277 17.1869 38.0608 16.4414 37.1097 16.4414C36.1334 16.4414 35.5224 17.2443 35.5224 18.4868V18.9647C35.5224 20.2391 36.1397 21.042 37.1349 21.042ZM44.5645 22.2081C43.7015 22.2081 43.0465 21.7939 42.6938 21.1758H42.6434V24.3491H41.245V15.3773H42.6056V16.3649H42.656C43.0213 15.7214 43.7016 15.288 44.596 15.288C46.0888 15.288 47.1534 16.4287 47.1534 18.4422V19.0412C47.1534 21.042 46.1015 22.2081 44.5645 22.2081ZM44.2433 21.042C45.1314 21.042 45.7361 20.322 45.7361 18.9647V18.4932C45.7361 17.1869 45.1692 16.4414 44.2181 16.4414C43.2417 16.4414 42.6308 17.2443 42.6308 18.4868V18.9647C42.6308 20.2391 43.248 21.042 44.2433 21.042ZM50.0511 19.6975H51.4494C51.5124 20.4494 52.1675 21.093 53.3832 21.093C54.4981 21.093 55.1595 20.5641 55.1595 19.7421C55.1595 19.0794 54.7185 18.7226 53.7989 18.4996L52.388 18.1427C51.2794 17.8815 50.2841 17.2124 50.2841 15.7978C50.2841 14.1347 51.7203 13.2235 53.3895 13.2235C55.0587 13.2235 56.4507 14.1347 56.4822 15.7596H55.1091C55.0461 15.0204 54.4854 14.4087 53.3706 14.4087C52.388 14.4087 51.7203 14.8802 51.7203 15.6895C51.7203 16.2566 52.1108 16.6644 52.9108 16.8492L54.3154 17.1996C55.6067 17.5183 56.5893 18.1363 56.5893 19.6147C56.5893 21.3224 55.2225 22.2846 53.2761 22.2846C50.8826 22.2846 50.0826 20.8699 50.0511 19.6975ZM58.2933 15.3773V13.7396H59.6664V15.3773H60.964V16.5115H59.6664V20.1053C59.6664 20.8381 59.9373 21.042 60.6868 21.042C60.8065 21.042 60.9199 21.042 61.0018 21.0293V22.1125C60.8884 22.1317 60.6238 22.1571 60.3404 22.1571C58.7216 22.1571 58.2744 21.5709 58.2744 20.22V16.5115H57.3548V15.3773H58.2933ZM64.7403 15.2626C66.6551 15.2626 67.6944 16.6262 67.6944 18.4613V19.0029C67.6944 20.9018 66.6614 22.2272 64.7403 22.2272C62.8191 22.2272 61.7735 20.9018 61.7735 19.0029V18.4613C61.7735 16.6325 62.8254 15.2626 64.7403 15.2626ZM64.7403 16.3968C63.701 16.3968 63.1845 17.257 63.1845 18.4804V18.9965C63.1845 20.2009 63.6947 21.0866 64.7403 21.0866C65.7859 21.0866 66.2898 20.2073 66.2898 18.9965V18.4804C66.2898 17.2506 65.7796 16.3968 64.7403 16.3968ZM68.8756 22.1125V15.3773H70.274V16.2629H70.3244C70.4944 15.8424 70.992 15.2816 71.9182 15.2816C72.101 15.2816 72.2579 15.2944 72.3905 15.3199V16.5688C72.2708 16.537 72.025 16.5178 71.7921 16.5178C70.6708 16.5178 70.2928 17.2188 70.2928 18.1236V22.1125H68.8756ZM75.7825 22.2272C74.0001 22.2272 72.8664 21.0356 72.8664 19.0412V18.3593C72.8664 16.4796 73.9743 15.2626 75.7259 15.2626C77.5018 15.2626 78.5725 16.5242 78.5725 18.4231V19.0666H74.2452V19.226C74.2452 20.3602 74.8501 21.1121 75.8011 21.1121C76.5128 21.1121 76.998 20.7552 77.1685 20.1754H78.4972C78.2958 21.2651 77.4265 22.2272 75.7825 22.2272ZM74.2452 18.079H77.2058V18.0662C77.2058 17.1105 76.6203 16.3586 75.7323 16.3586C74.8315 16.3586 74.2452 17.1105 74.2452 18.0662V18.079Z" fill="white"/>
</g>
<defs>
<clipPath id="clip0_1_214">
<rect width="86" height="29" fill="white"/>
</clipPath>
</defs>
</svg>
