<svg width="86" height="29" viewBox="0 0 86 29" fill="none" xmlns="http://www.w3.org/2000/svg">
<g clip-path="url(#clip0_1_221)">
<path d="M81.7 0.362549H4.3C2.12308 0.362549 0.358337 2.14781 0.358337 4.35005V24.65C0.358337 26.8523 2.12308 28.6375 4.3 28.6375H81.7C83.8769 28.6375 85.6417 26.8523 85.6417 24.65V4.35005C85.6417 2.14781 83.8769 0.362549 81.7 0.362549Z" fill="black"/>
<path d="M81.7 0.362549H4.3C2.12308 0.362549 0.358337 2.14781 0.358337 4.35005V24.65C0.358337 26.8523 2.12308 28.6375 4.3 28.6375H81.7C83.8769 28.6375 85.6417 26.8523 85.6417 24.65V4.35005C85.6417 2.14781 83.8769 0.362549 81.7 0.362549Z" stroke="#A6A6A6"/>
<path d="M12.7603 14.1097L5.79773 21.7543C5.79839 21.7557 5.79839 21.7577 5.79904 21.7591C6.01288 22.5891 6.7453 23.2 7.61502 23.2C7.96297 23.2 8.28926 23.1026 8.56919 22.9321L8.59141 22.9186L16.4283 18.2405L12.7603 14.1097Z" fill="#EA4335"/>
<path d="M19.8024 12.808L19.7958 12.8033L16.4123 10.7744L12.6004 14.2835L16.4261 18.2397L19.7913 16.2312C20.3811 15.901 20.782 15.2577 20.782 14.5162C20.782 13.7788 20.387 13.1389 19.8024 12.808Z" fill="#FBBC04"/>
<path d="M5.79742 7.24512C5.75557 7.4048 5.73334 7.57256 5.73334 7.74577V21.2543C5.73334 21.4275 5.75557 21.5953 5.79808 21.7543L12.9993 14.3052L5.79742 7.24512Z" fill="#4285F4"/>
<path d="M12.8119 14.5L16.4152 10.773L8.58747 6.07809C8.30302 5.90152 7.97078 5.80005 7.61567 5.80005C6.74596 5.80005 6.01223 6.41229 5.79839 7.24305L5.79773 7.24508L12.8119 14.5Z" fill="#34A853"/>
<path d="M31.2538 8.48974C31.2538 9.21474 31.0412 9.79235 30.616 10.2225C30.1382 10.7349 29.51 10.991 28.7312 10.991C27.9858 10.991 27.3552 10.73 26.8392 10.208C26.3232 9.68599 26.0652 9.04314 26.0652 8.27949C26.0652 7.51585 26.3232 6.87299 26.8392 6.35099C27.3552 5.82899 27.9858 5.56799 28.7312 5.56799C29.1086 5.56799 29.4645 5.63566 29.799 5.77099C30.1335 5.90633 30.4082 6.09724 30.6232 6.34374L30.1502 6.82224C29.9925 6.62891 29.787 6.47908 29.5338 6.37274C29.2854 6.26158 29.0178 6.20599 28.7312 6.20599C28.1722 6.20599 27.6992 6.40174 27.3122 6.79324C26.93 7.18958 26.7388 7.68499 26.7388 8.27949C26.7388 8.87399 26.93 9.36939 27.3122 9.76574C27.6992 10.1572 28.1722 10.353 28.7312 10.353C29.2424 10.353 29.6676 10.208 30.0068 9.91799C30.346 9.62799 30.542 9.22924 30.5945 8.72174H28.7312V8.09824H31.218C31.2419 8.2336 31.2538 8.3641 31.2538 8.48974ZM35.0506 5.68399V6.32199H32.7142V7.96774H34.8212V8.59124H32.7142V10.237H35.0506V10.875H32.0549V5.68399H35.0506ZM37.6878 6.32199V10.875H37.0285V6.32199H35.5952V5.68399H39.1212V6.32199H37.6878ZM42.0435 10.875H41.3842V5.68399H42.0435V10.875ZM44.8266 6.32199V10.875H44.1672V6.32199H42.7339V5.68399H46.2599V6.32199H44.8266ZM53.4067 8.27949C53.4067 9.04799 53.1535 9.69085 52.647 10.208C52.1358 10.73 51.5099 10.991 50.7694 10.991C50.024 10.991 49.3982 10.73 48.8917 10.208C48.3852 9.69085 48.132 9.04799 48.132 8.27949C48.132 7.51099 48.3852 6.86816 48.8917 6.35099C49.3982 5.82899 50.024 5.56799 50.7694 5.56799C51.5147 5.56799 52.1406 5.83141 52.647 6.35824C53.1535 6.87541 53.4067 7.51585 53.4067 8.27949ZM48.8057 8.27949C48.8057 8.87885 48.992 9.37424 49.3647 9.76574C49.7422 10.1572 50.2104 10.353 50.7694 10.353C51.3284 10.353 51.7942 10.1572 52.1669 9.76574C52.5443 9.3791 52.733 8.88364 52.733 8.27949C52.733 7.67535 52.5443 7.17991 52.1669 6.79324C51.7942 6.40174 51.3284 6.20599 50.7694 6.20599C50.2104 6.20599 49.7422 6.40174 49.3647 6.79324C48.992 7.18474 48.8057 7.68014 48.8057 8.27949ZM54.8441 10.875H54.1848V5.68399H54.9875L57.4815 9.72224H57.5101L57.4815 8.72174V5.68399H58.1408V10.875H57.4528L54.8441 6.64099H54.8155L54.8441 7.64149V10.875Z" fill="white"/>
<path d="M67.0213 22.772H68.1886V14.7886H67.0213V22.772ZM77.5354 17.6643L76.1974 21.1256H76.1573L74.7684 17.6643H73.5106L75.5933 22.5019L74.4065 25.193H75.6234L78.8333 17.6643H77.5354ZM70.9155 21.8651C70.5326 21.8651 69.9996 21.6704 69.9996 21.187C69.9996 20.5713 70.6634 20.335 71.237 20.335C71.7498 20.335 71.992 20.448 72.3038 20.602C72.2128 21.3415 71.5892 21.8651 70.9155 21.8651ZM71.0563 17.49C70.2111 17.49 69.3353 17.8699 68.9737 18.7123L70.0096 19.1536C70.2311 18.7123 70.6433 18.568 71.0763 18.568C71.6803 18.568 72.2937 18.9377 72.3038 19.5955V19.6773C72.0924 19.554 71.6399 19.3695 71.0863 19.3695C69.9696 19.3695 68.8323 19.9959 68.8323 21.1665C68.8323 22.235 69.7481 22.9233 70.7741 22.9233C71.5592 22.9233 71.992 22.5638 72.2636 22.1423H72.3038V22.7586H73.4304V19.6977C73.4304 18.2806 72.3941 17.49 71.0563 17.49ZM63.8422 18.6363H62.1819V15.8998H63.8422C64.7148 15.8998 65.2103 16.6374 65.2103 17.2678C65.2103 17.8865 64.7148 18.6363 63.8422 18.6363ZM63.8121 14.7886H61.0152V22.772H62.1819V19.7475H63.8121C65.1058 19.7475 66.3776 18.7908 66.3776 17.2678C66.3776 15.7447 65.1058 14.7886 63.8121 14.7886ZM48.5601 21.8664C47.7538 21.8664 47.0788 21.1774 47.0788 20.2309C47.0788 19.2743 47.7538 18.5744 48.5601 18.5744C49.3565 18.5744 49.9808 19.2743 49.9808 20.2309C49.9808 21.1774 49.3565 21.8664 48.5601 21.8664ZM49.9007 18.1114H49.8601C49.5979 17.7927 49.0944 17.5047 48.4594 17.5047C47.1288 17.5047 45.9096 18.6976 45.9096 20.2309C45.9096 21.7534 47.1288 22.9368 48.4594 22.9368C49.0944 22.9368 49.5979 22.6487 49.8601 22.3192H49.9007V22.7107C49.9007 23.7497 49.3565 24.3053 48.4794 24.3053C47.7637 24.3053 47.3202 23.7804 47.1388 23.3378L46.121 23.7701C46.4132 24.4905 47.1895 25.375 48.4794 25.375C49.85 25.375 51.0092 24.5518 51.0092 22.5459V17.6688H49.9007V18.1114ZM51.8156 22.772H52.9847V14.788H51.8156V22.772ZM54.7076 20.1383C54.6776 19.0891 55.504 18.5539 56.0982 18.5539C56.5624 18.5539 56.9553 18.7903 57.086 19.13L54.7076 20.1383ZM58.3359 19.2328C58.1144 18.6261 57.4388 17.5047 56.0582 17.5047C54.6876 17.5047 53.549 18.605 53.549 20.2208C53.549 21.7432 54.6776 22.9368 56.1889 22.9368C57.4088 22.9368 58.1144 22.1755 58.4066 21.733L57.4995 21.1154C57.1974 21.5682 56.7838 21.8664 56.1889 21.8664C55.5946 21.8664 55.1711 21.5886 54.899 21.0439L58.4566 19.5412L58.3359 19.2328ZM29.9926 18.3381V19.4902H32.6932C32.6125 20.1383 32.401 20.6115 32.0788 20.9405C31.6853 21.3421 31.0704 21.7847 29.9926 21.7847C28.3292 21.7847 27.0292 20.4161 27.0292 18.7187C27.0292 17.0206 28.3292 15.6527 29.9926 15.6527C30.8896 15.6527 31.5446 16.0129 32.0282 16.4759L32.8245 15.6629C32.1489 15.0045 31.2525 14.5 29.9926 14.5C27.7149 14.5 25.8 16.3935 25.8 18.7187C25.8 21.0439 27.7149 22.9368 29.9926 22.9368C31.2218 22.9368 32.1489 22.5249 32.8746 21.7534C33.6209 20.9922 33.8523 19.9225 33.8523 19.0578C33.8523 18.7903 33.8323 18.5437 33.7917 18.3381H29.9926ZM36.9232 21.8664C36.1169 21.8664 35.4212 21.1876 35.4212 20.2208C35.4212 19.243 36.1169 18.5744 36.9232 18.5744C37.729 18.5744 38.4246 19.243 38.4246 20.2208C38.4246 21.1876 37.729 21.8664 36.9232 21.8664ZM36.9232 17.5047C35.4513 17.5047 34.2521 18.6466 34.2521 20.2208C34.2521 21.7847 35.4513 22.9368 36.9232 22.9368C38.3946 22.9368 39.5938 21.7847 39.5938 20.2208C39.5938 18.6466 38.3946 17.5047 36.9232 17.5047ZM42.7492 21.8664C41.9428 21.8664 41.2472 21.1876 41.2472 20.2208C41.2472 19.243 41.9428 18.5744 42.7492 18.5744C43.5555 18.5744 44.2506 19.243 44.2506 20.2208C44.2506 21.1876 43.5555 21.8664 42.7492 21.8664ZM42.7492 17.5047C41.2778 17.5047 40.0786 18.6466 40.0786 20.2208C40.0786 21.7847 41.2778 22.9368 42.7492 22.9368C44.2205 22.9368 45.4197 21.7847 45.4197 20.2208C45.4197 18.6466 44.2205 17.5047 42.7492 17.5047Z" fill="white"/>
</g>
<defs>
<clipPath id="clip0_1_221">
<rect width="86" height="29" fill="white"/>
</clipPath>
</defs>
</svg>
